# xmcd
#
# Track frame offsets:
# 150
# 22682
# 41613
# 69053
# 87989
# 105172
# 122444
# 137812
# 159723
# 174934
# 196979
# 213097
# 233709
# 248897
#
# Disc length: 3594 seconds
#
#
# Revision: 0
# Processed by: cddbd v1.5.1PL0 Copyright (c) Steve Scherf et al.
# Submitted via: FreeRIP 2.80 
#
DISCID=a30e080e
DTITLE=Hemant Kumar - Sunehri yaadein
DYEAR=2004
DGENRE=Blues
TTITLE0=YEH RAAT CHANDNI
TTITLE1=YAAD KIYA DIL NE
TTITLE2=NIAN SE NAIN
TTITLE3=JANE WOH KAISE
TTITLE4=O NEEND NA MUJHKO
TTITLE5=NA TUM HAMEN JANO
TTITLE6=BEQARAR KARKE
TTITLE7=YA DIL KI SUNO DUNIYA WALO
TTITLE8=TERI DUNIYA MEIN JEENE SE
TTITLE9=TUMHE YAAD HOGA KABHI
TTITLE10=ZARA NAZRON SE KAH
TTITLE11=YEH NAIN DARE DARE
TTITLE12=CHUPALO CHUPALO
TTITLE13=TUM PUKAR LO TUMHARA INTEZAAR HAI..
EXTD=Old songs wid digital mastering..
EXTT0=
EXTT1=
EXTT2=
EXTT3=
EXTT4=
EXTT5=
EXTT6=
EXTT7=
EXTT8=
EXTT9=
EXTT10=
EXTT11=
EXTT12=
EXTT13=
PLAYORDER=
